<svg width="1920" height="81" viewBox="0 0 1920 81" fill="none" xmlns="http://www.w3.org/2000/svg">
<path d="M80 41C80 63.0914 62.0914 81 40 81C17.9086 81 0 63.0914 0 41C0 18.9086 17.9086 1 40 1C62.0914 1 80 18.9086 80 41Z" fill="white"/>
<path d="M160 41C160 63.0914 142.091 81 120 81C97.9086 81 80 63.0914 80 41C80 18.9086 97.9086 1 120 1C142.091 1 160 18.9086 160 41Z" fill="white"/>
<path d="M240 41C240 63.0914 222.091 81 200 81C177.909 81 160 63.0914 160 41C160 18.9086 177.909 1 200 1C222.091 1 240 18.9086 240 41Z" fill="white"/>
<path d="M320 41C320 63.0914 302.091 81 280 81C257.909 81 240 63.0914 240 41C240 18.9086 257.909 1 280 1C302.091 1 320 18.9086 320 41Z" fill="white"/>
<path d="M400 41C400 63.0914 382.091 81 360 81C337.909 81 320 63.0914 320 41C320 18.9086 337.909 1 360 1C382.091 1 400 18.9086 400 41Z" fill="white"/>
<path d="M480 41C480 63.0914 462.091 81 440 81C417.909 81 400 63.0914 400 41C400 18.9086 417.909 1 440 1C462.091 1 480 18.9086 480 41Z" fill="white"/>
<path d="M560 41C560 63.0914 542.091 81 520 81C497.909 81 480 63.0914 480 41C480 18.9086 497.909 1 520 1C542.091 1 560 18.9086 560 41Z" fill="white"/>
<path d="M640 41C640 63.0914 622.091 81 600 81C577.909 81 560 63.0914 560 41C560 18.9086 577.909 1 600 1C622.091 1 640 18.9086 640 41Z" fill="white"/>
<path d="M720 41C720 63.0914 702.091 81 680 81C657.909 81 640 63.0914 640 41C640 18.9086 657.909 1 680 1C702.091 1 720 18.9086 720 41Z" fill="white"/>
<path d="M800 41C800 63.0914 782.091 81 760 81C737.909 81 720 63.0914 720 41C720 18.9086 737.909 1 760 1C782.091 1 800 18.9086 800 41Z" fill="white"/>
<path d="M880 41C880 63.0914 862.091 81 840 81C817.909 81 800 63.0914 800 41C800 18.9086 817.909 1 840 1C862.091 1 880 18.9086 880 41Z" fill="white"/>
<path d="M960 41C960 63.0914 942.091 81 920 81C897.909 81 880 63.0914 880 41C880 18.9086 897.909 1 920 1C942.091 1 960 18.9086 960 41Z" fill="white"/>
<path d="M1040 41C1040 63.0914 1022.09 81 1000 81C977.909 81 960 63.0914 960 41C960 18.9086 977.909 1 1000 1C1022.09 1 1040 18.9086 1040 41Z" fill="white"/>
<path d="M1120 41C1120 63.0914 1102.09 81 1080 81C1057.91 81 1040 63.0914 1040 41C1040 18.9086 1057.91 1 1080 1C1102.09 1 1120 18.9086 1120 41Z" fill="white"/>
<path d="M1200 41C1200 63.0914 1182.09 81 1160 81C1137.91 81 1120 63.0914 1120 41C1120 18.9086 1137.91 1 1160 1C1182.09 1 1200 18.9086 1200 41Z" fill="white"/>
<path d="M1280 41C1280 63.0914 1262.09 81 1240 81C1217.91 81 1200 63.0914 1200 41C1200 18.9086 1217.91 1 1240 1C1262.09 1 1280 18.9086 1280 41Z" fill="white"/>
<path d="M1360 41C1360 63.0914 1342.09 81 1320 81C1297.91 81 1280 63.0914 1280 41C1280 18.9086 1297.91 1 1320 1C1342.09 1 1360 18.9086 1360 41Z" fill="white"/>
<path d="M1440 41C1440 63.0914 1422.09 81 1400 81C1377.91 81 1360 63.0914 1360 41C1360 18.9086 1377.91 1 1400 1C1422.09 1 1440 18.9086 1440 41Z" fill="white"/>
<path d="M1520 41C1520 63.0914 1502.09 81 1480 81C1457.91 81 1440 63.0914 1440 41C1440 18.9086 1457.91 1 1480 1C1502.09 1 1520 18.9086 1520 41Z" fill="white"/>
<path d="M1600 41C1600 63.0914 1582.09 81 1560 81C1537.91 81 1520 63.0914 1520 41C1520 18.9086 1537.91 1 1560 1C1582.09 1 1600 18.9086 1600 41Z" fill="white"/>
<path d="M1680 41C1680 63.0914 1662.09 81 1640 81C1617.91 81 1600 63.0914 1600 41C1600 18.9086 1617.91 1 1640 1C1662.09 1 1680 18.9086 1680 41Z" fill="white"/>
<path d="M1760 41C1760 63.0914 1742.09 81 1720 81C1697.91 81 1680 63.0914 1680 41C1680 18.9086 1697.91 1 1720 1C1742.09 1 1760 18.9086 1760 41Z" fill="white"/>
<path d="M1840 41C1840 63.0914 1822.09 81 1800 81C1777.91 81 1760 63.0914 1760 41C1760 18.9086 1777.91 1 1800 1C1822.09 1 1840 18.9086 1840 41Z" fill="white"/>
<path d="M1920 41C1920 63.0914 1902.09 81 1880 81C1857.91 81 1840 63.0914 1840 41C1840 18.9086 1857.91 1 1880 1C1902.09 1 1920 18.9086 1920 41Z" fill="white"/>
<rect y="0.69751" width="1920" height="50.3025" fill="white"/>
</svg>
