<svg width="1920" height="276" viewBox="0 0 1920 276" fill="none" xmlns="http://www.w3.org/2000/svg">
<path d="M80 236C80 258.091 62.0914 276 40 276C17.9086 276 0 258.091 0 236C0 213.909 17.9086 196 40 196C62.0914 196 80 213.909 80 236Z" fill="white"/>
<path d="M160 236C160 258.091 142.091 276 120 276C97.9086 276 80 258.091 80 236C80 213.909 97.9086 196 120 196C142.091 196 160 213.909 160 236Z" fill="white"/>
<path d="M240 236C240 258.091 222.091 276 200 276C177.909 276 160 258.091 160 236C160 213.909 177.909 196 200 196C222.091 196 240 213.909 240 236Z" fill="white"/>
<path d="M320 236C320 258.091 302.091 276 280 276C257.909 276 240 258.091 240 236C240 213.909 257.909 196 280 196C302.091 196 320 213.909 320 236Z" fill="white"/>
<path d="M400 236C400 258.091 382.091 276 360 276C337.909 276 320 258.091 320 236C320 213.909 337.909 196 360 196C382.091 196 400 213.909 400 236Z" fill="white"/>
<path d="M480 236C480 258.091 462.091 276 440 276C417.909 276 400 258.091 400 236C400 213.909 417.909 196 440 196C462.091 196 480 213.909 480 236Z" fill="white"/>
<path d="M560 236C560 258.091 542.091 276 520 276C497.909 276 480 258.091 480 236C480 213.909 497.909 196 520 196C542.091 196 560 213.909 560 236Z" fill="white"/>
<path d="M640 236C640 258.091 622.091 276 600 276C577.909 276 560 258.091 560 236C560 213.909 577.909 196 600 196C622.091 196 640 213.909 640 236Z" fill="white"/>
<path d="M720 236C720 258.091 702.091 276 680 276C657.909 276 640 258.091 640 236C640 213.909 657.909 196 680 196C702.091 196 720 213.909 720 236Z" fill="white"/>
<path d="M800 236C800 258.091 782.091 276 760 276C737.909 276 720 258.091 720 236C720 213.909 737.909 196 760 196C782.091 196 800 213.909 800 236Z" fill="white"/>
<path d="M880 236C880 258.091 862.091 276 840 276C817.909 276 800 258.091 800 236C800 213.909 817.909 196 840 196C862.091 196 880 213.909 880 236Z" fill="white"/>
<path d="M960 236C960 258.091 942.091 276 920 276C897.909 276 880 258.091 880 236C880 213.909 897.909 196 920 196C942.091 196 960 213.909 960 236Z" fill="white"/>
<path d="M1040 236C1040 258.091 1022.09 276 1000 276C977.909 276 960 258.091 960 236C960 213.909 977.909 196 1000 196C1022.09 196 1040 213.909 1040 236Z" fill="white"/>
<path d="M1120 236C1120 258.091 1102.09 276 1080 276C1057.91 276 1040 258.091 1040 236C1040 213.909 1057.91 196 1080 196C1102.09 196 1120 213.909 1120 236Z" fill="white"/>
<path d="M1200 236C1200 258.091 1182.09 276 1160 276C1137.91 276 1120 258.091 1120 236C1120 213.909 1137.91 196 1160 196C1182.09 196 1200 213.909 1200 236Z" fill="white"/>
<path d="M1280 236C1280 258.091 1262.09 276 1240 276C1217.91 276 1200 258.091 1200 236C1200 213.909 1217.91 196 1240 196C1262.09 196 1280 213.909 1280 236Z" fill="white"/>
<path d="M1360 236C1360 258.091 1342.09 276 1320 276C1297.91 276 1280 258.091 1280 236C1280 213.909 1297.91 196 1320 196C1342.09 196 1360 213.909 1360 236Z" fill="white"/>
<path d="M1440 236C1440 258.091 1422.09 276 1400 276C1377.91 276 1360 258.091 1360 236C1360 213.909 1377.91 196 1400 196C1422.09 196 1440 213.909 1440 236Z" fill="white"/>
<path d="M1520 236C1520 258.091 1502.09 276 1480 276C1457.91 276 1440 258.091 1440 236C1440 213.909 1457.91 196 1480 196C1502.09 196 1520 213.909 1520 236Z" fill="white"/>
<path d="M1600 236C1600 258.091 1582.09 276 1560 276C1537.91 276 1520 258.091 1520 236C1520 213.909 1537.91 196 1560 196C1582.09 196 1600 213.909 1600 236Z" fill="white"/>
<path d="M1680 236C1680 258.091 1662.09 276 1640 276C1617.91 276 1600 258.091 1600 236C1600 213.909 1617.91 196 1640 196C1662.09 196 1680 213.909 1680 236Z" fill="white"/>
<path d="M1760 236C1760 258.091 1742.09 276 1720 276C1697.91 276 1680 258.091 1680 236C1680 213.909 1697.91 196 1720 196C1742.09 196 1760 213.909 1760 236Z" fill="white"/>
<path d="M1840 236C1840 258.091 1822.09 276 1800 276C1777.91 276 1760 258.091 1760 236C1760 213.909 1777.91 196 1800 196C1822.09 196 1840 213.909 1840 236Z" fill="white"/>
<path d="M1920 236C1920 258.091 1902.09 276 1880 276C1857.91 276 1840 258.091 1840 236C1840 213.909 1857.91 196 1880 196C1902.09 196 1920 213.909 1920 236Z" fill="white"/>
<rect y="126" width="1920" height="120" fill="white"/>
</svg>
