<svg width="150" height="151" viewBox="0 0 150 151" fill="none" xmlns="http://www.w3.org/2000/svg">
<g clip-path="url(#clip0)">
<path d="M130.518 131.915C128.933 128.598 126.521 125.849 124.187 123.318C123.937 123.048 123.688 122.779 123.437 122.509C121.431 120.346 119.356 118.11 117.825 115.627C116.124 112.869 115.059 109.811 113.931 106.575C113.562 105.515 113.18 104.42 112.777 103.346C111.317 99.4552 109.101 94.5937 104.89 91.5061C104.166 90.9762 103.41 90.5196 102.634 90.1076C105.901 88.454 108.068 86.3883 110.011 83.1599C112.534 78.9714 113.227 73.8765 111.866 69.53C110.604 65.5028 107.584 62.2161 103.888 60.6929C106.295 56.7595 106.651 51.5719 104.649 47.4029C102.242 42.3892 98.4306 39.2753 94.2421 38.7958C94.5843 37.8184 94.6427 36.8159 94.6896 35.9725L95.002 30.326C97.2679 30.5984 99.6494 30.1337 101.602 28.8714C105.155 26.5712 107.068 21.9443 106.249 17.6208C105.486 13.5879 102.405 9.95894 98.3997 8.37736C95.5181 7.23868 92.3458 7.19176 88.5269 8.24805C88.2694 7.37486 87.7796 6.53029 87.0896 5.80588C86.071 4.737 84.7904 4.05493 83.5579 3.477C79.0718 1.37244 75.1728 0.618271 71.64 1.17102C69.8662 1.44911 68.1244 2.07281 66.4604 3.02382C65.3378 3.66583 64.2689 4.44975 63.2847 5.35269C61.1881 7.27759 59.4086 9.7827 57.9964 12.7971C57.8694 13.0717 57.7675 13.3395 57.692 13.6004C54.3286 12.9561 51.0693 13.4196 48.5092 14.952C46.7491 16.0049 45.3118 17.7375 44.5633 19.7059C43.7508 21.8459 43.8057 24.0466 44.7201 25.9028C45.7249 27.9456 47.6807 29.5501 50.5326 30.6727C51.3462 30.9932 52.1805 31.2564 53.0262 31.4658L54.3457 39.59C50.1263 41.5984 46.4962 45.9426 44.727 49.4651C42.722 53.4556 42.1578 58.2393 43.1809 62.588L43.2255 62.7723C43.3743 63.3971 43.5425 64.1044 43.3743 64.4362C43.2564 64.6708 42.8616 64.9375 42.4793 65.195L42.2745 65.3346C37.3192 68.7381 34.8095 75.2051 36.1714 81.0599C37.262 85.7474 40.7524 89.6899 45.1538 91.5221C40.9561 94.6109 38.744 99.462 37.286 103.346C36.8832 104.42 36.501 105.515 36.1325 106.575C35.0041 109.811 33.9386 112.869 32.238 115.627C30.7068 118.11 28.632 120.346 26.6258 122.509C26.3752 122.779 26.1257 123.048 25.8763 123.318C23.5417 125.849 21.1304 128.598 19.5454 131.915C17.7189 135.738 17.3733 139.679 18.5749 143.013C19.9734 146.898 23.6183 149.605 27.3606 149.605C27.5105 149.605 27.6604 149.601 27.8103 149.593C28.3905 149.559 28.8712 149.188 29.0783 148.682C32.0755 149.726 35.2547 150.249 38.4327 150.249C41.7652 150.249 45.0978 149.674 48.2208 148.519C48.864 148.283 49.4694 148.028 50.045 147.761C50.1023 147.768 50.1572 147.778 50.2167 147.778H50.2396L96.5378 147.066C96.8468 147.061 97.1306 146.961 97.3652 146.792C99.5579 148.424 102.05 149.651 104.691 150.336C106.4 150.778 108.166 150.996 109.934 150.996C113.757 150.996 117.586 149.979 120.875 148.042V148.074C120.844 148.871 121.456 149.546 122.253 149.593C122.403 149.601 122.552 149.605 122.702 149.605C126.443 149.605 130.09 146.898 131.488 143.013C132.689 139.679 132.344 135.738 130.518 131.915ZM102.008 48.6709C103.831 52.468 103.171 57.3375 100.401 60.5121C100.06 60.9023 99.9516 61.4436 100.114 61.9346C100.277 62.4267 100.687 62.7963 101.193 62.9062C104.742 63.6786 107.907 66.693 109.07 70.4043C110.185 73.9634 109.599 78.1669 107.502 81.6482C105.505 84.9635 103.433 86.6996 99.5819 88.2846C99.432 88.3464 99.3015 88.4345 99.186 88.5364C98.8701 88.407 98.5554 88.2812 98.243 88.1553C97.9134 88.0237 97.5849 87.8909 97.2565 87.757C95.0615 86.8621 92.5736 85.7532 90.8295 83.9141C89.637 82.6587 89.0499 80.3424 88.4834 78.1028C88.3038 77.3932 88.1172 76.6597 87.9112 75.9479C87.8643 75.7865 87.7865 75.6434 87.6961 75.5141C88.1973 75.0815 88.6849 74.6295 89.1529 74.1534C92.8974 70.3448 95.5673 65.1137 96.6728 59.426C96.9189 58.1569 97.0745 56.7996 96.5481 55.4801C96.0262 54.1709 95.0043 53.3298 94.1036 52.587C93.956 52.4657 93.8084 52.3433 93.6642 52.2208C90.9187 49.8771 89.1701 46.35 88.9469 42.7463C90.0398 42.4819 91.1465 42.1123 92.0883 41.4988C92.3058 41.6099 92.5507 41.6739 92.8116 41.6636C98.1136 41.4405 101.191 46.9703 102.008 48.6709ZM99.9264 130.011C99.8875 130.089 99.8612 130.169 99.8383 130.249C99.6529 130.258 99.4732 130.267 99.3061 130.271C97.7795 130.299 96.2528 130.316 94.7251 130.334C87.2921 130.416 79.7104 130.482 72.2202 130.596C65.4797 130.698 58.6029 131.288 51.8692 130.936C51.8212 130.933 51.2089 130.949 51.2009 130.882C51.1803 130.71 51.1322 130.54 51.0475 130.377C51.0475 130.377 44.4226 117.778 44.4226 117.777C44.6469 118.204 46.8556 118.314 47.3133 118.356C48.4154 118.459 49.53 118.433 50.6264 118.274C51.8555 118.095 53.0205 117.688 54.1329 117.158C54.5059 116.981 54.8744 116.79 55.2372 116.587C56.5705 115.847 58.2562 114.847 59.8171 114.814C61.1435 114.79 62.4664 115.53 63.8638 116.318C65.617 117.306 67.3577 118.407 69.4451 118.308C71.6767 118.203 73.7148 117.437 75.7507 116.577C77.2453 115.944 78.7789 115.15 80.4325 115.074C82.0702 114.999 83.622 115.725 85.0742 116.394C85.6579 116.662 86.2621 116.941 86.887 117.183C90.7608 118.694 95.1519 118.71 99.194 117.918C101.887 117.389 104.478 116.526 106.995 115.571L99.9264 130.011ZM102.01 134.767C101.291 135.665 99.8554 135.748 98.1915 135.758L51.7719 136.04C50.7717 136.045 49.6365 136.052 48.8514 135.625C48.3193 135.337 48.016 134.719 48.1499 134.434C48.2529 134.214 48.6912 133.844 50.4685 133.821L92.7796 133.286L94.7582 133.263C96.2929 133.246 97.8275 133.229 99.3622 133.199C99.5751 133.195 99.8051 133.184 100.044 133.172C100.765 133.135 101.752 133.085 102.133 133.351C102.172 133.379 102.274 133.45 102.309 133.695C102.358 134.039 102.232 134.49 102.01 134.767ZM98.6298 115.043C94.6381 115.826 90.9462 115.622 87.9513 114.454C87.4077 114.242 86.8687 113.995 86.2988 113.732C84.8488 113.064 83.3508 112.376 81.6216 112.218C79.0844 111.984 76.8105 112.948 74.6098 113.878C72.543 114.752 70.5906 115.578 68.7149 115.249C67.5831 115.051 66.4753 114.426 65.3023 113.766C63.7013 112.863 61.8897 111.85 59.7553 111.886C57.7995 111.927 56.1299 112.862 54.6581 113.687C54.1031 113.997 53.5801 114.29 53.0548 114.534C49.9764 115.968 46.2467 115.77 43.2965 114.125C49.7532 108.093 58.1841 103.833 67.1242 102.111C74.5892 100.675 81.4282 100.859 87.4523 102.661C90.6372 103.613 93.7649 105.034 96.7896 106.407C98.1846 107.041 99.6266 107.696 101.07 108.304C101.365 108.428 101.672 108.554 101.985 108.683C104.107 109.55 106.483 110.525 107.619 112.186C104.694 113.344 101.691 114.442 98.6298 115.043ZM82.4352 98.424C82.1446 98.3748 81.855 98.3291 81.5666 98.289C80.0629 98.0807 78.5454 98.0853 77.0291 98.1368C77.2682 95.1774 78.2902 92.2374 79.9484 89.7849C79.9999 89.7094 80.04 89.6304 80.0755 89.5503C81.5575 89.1234 82.9823 88.5501 84.3167 87.8406C83.2764 91.22 82.7809 94.9302 82.4352 98.424ZM76.6491 87.3015C73.019 87.8291 69.1155 87.3874 65.3607 86.0244C64.3662 85.6627 63.1737 85.1523 62.423 84.3307C63.1554 83.0054 63.6246 81.5143 63.9588 80.0574C64.0194 79.7954 64.0812 79.5299 64.1453 79.2609C66.909 80.5289 69.9474 81.211 72.9836 81.211C73.3544 81.211 73.7263 81.2007 74.0959 81.1812C77.9801 80.9661 81.8676 79.6111 85.2619 77.3566C85.3935 77.8407 85.5194 78.3374 85.643 78.8226C85.9612 80.0837 86.2152 81.3735 86.6799 82.5911C84.0454 85.0722 80.4852 86.7442 76.6491 87.3015ZM73.6061 44.3908C77.7775 44.3908 81.9477 44.0314 86.0504 43.3173C86.4212 47.5631 88.5224 51.6829 91.761 54.449C91.9178 54.5829 92.0792 54.7156 92.2405 54.8484C92.9306 55.4172 93.5829 55.955 93.8267 56.5661C94.0727 57.1841 93.9572 58.0378 93.7958 58.8675C92.8002 63.9968 90.4083 68.6957 87.0632 72.1003C83.4755 75.7499 78.6907 77.9929 73.9346 78.2561C69.5389 78.4965 65.0471 77.0522 61.6173 74.2896C58.1875 71.5259 55.8209 67.4472 55.1216 63.0973C54.8767 61.5706 54.9397 60.4617 55.3196 59.6091C55.6652 58.8321 56.337 58.1397 57.0477 57.4061C57.2136 57.2345 57.3795 57.064 57.5421 56.8912C60.9295 53.292 63.1325 48.6251 63.7711 43.7259C67.0281 44.1676 70.3171 44.3908 73.6061 44.3908ZM57.3052 39.5396L56.0772 31.9774C60.8128 32.4134 65.6994 31.2381 69.6682 28.6037C72.3461 31.4818 76.2566 33.2339 80.1865 33.25H80.2414C84.1278 33.25 88.0016 31.5562 90.6876 28.7478C91.1408 29.0568 91.626 29.3189 92.1295 29.5421C92.1181 29.605 92.1032 29.6668 92.0998 29.7332L91.7633 35.8111C91.7164 36.6809 91.666 37.5815 91.3078 38.2098C90.6979 39.281 89.09 39.7388 87.5977 40.0454C77.6425 42.0928 67.1906 41.9166 57.3052 39.5396ZM51.606 27.9468C49.4534 27.0988 48.0206 25.9761 47.3488 24.6085C46.1048 22.0828 47.7551 18.8167 50.013 17.4651C52.3499 16.0666 55.679 15.8721 58.9199 16.9421C59.6031 17.1676 60.3493 16.8632 60.68 16.2234C60.965 15.6741 60.8689 15.0161 60.4683 14.5709C60.4889 14.4588 60.5393 14.2768 60.6503 14.0388C61.8988 11.3723 63.4518 9.17502 65.2657 7.5099C66.0896 6.75459 66.98 6.10113 67.915 5.5667C69.2677 4.79308 70.6741 4.28839 72.0932 4.06523C75.0298 3.60632 78.3737 4.28038 82.3139 6.1286C83.4389 6.65732 84.3212 7.14712 84.9678 7.8269C85.5858 8.47578 85.8982 9.28374 85.7838 9.93605C85.6945 10.4465 85.8822 10.9672 86.2782 11.3036C86.673 11.6401 87.2166 11.7419 87.7064 11.5726C91.6374 10.2119 94.693 10.0619 97.3229 11.1011C100.416 12.3233 102.789 15.0962 103.37 18.1655C103.973 21.3504 102.591 24.7413 100.01 26.411C97.4236 28.0841 93.6264 27.7534 91.5459 25.6717C91.246 25.373 90.8306 25.2185 90.4118 25.2471C89.9906 25.2746 89.6015 25.484 89.3452 25.8193C87.2234 28.5991 83.7399 30.3203 80.2426 30.3203C80.2288 30.3203 80.2139 30.3203 80.1991 30.3203C76.688 30.3065 73.1976 28.5533 71.0907 25.7449C70.855 25.4313 70.5036 25.2254 70.1157 25.1716C70.0493 25.1636 69.9841 25.159 69.9188 25.159C69.5961 25.159 69.2803 25.2654 69.0228 25.4645C64.1613 29.2239 57.3246 30.1978 51.606 27.9468ZM39.0244 80.395C37.9475 75.7613 40.0109 70.4432 43.9327 67.7493L44.1204 67.6211C44.7464 67.1977 45.5258 66.6713 45.9881 65.758C46.6416 64.4683 46.3143 63.095 46.0751 62.0925L46.0327 61.9151C45.1653 58.2255 45.6425 54.1663 47.3442 50.78C49.1879 47.1099 52.6131 43.608 55.7385 42.1695C57.4356 42.5998 59.1499 42.9671 60.8769 43.2727C60.3298 47.594 58.3935 51.7116 55.4089 54.8827C55.2567 55.0452 55.0999 55.2054 54.9442 55.3668C54.1271 56.2102 53.2002 57.1658 52.6428 58.4166C51.8257 60.2511 52.0157 62.2321 52.2297 63.5619C53.0411 68.6168 55.7934 73.3581 59.7794 76.5704C60.3264 77.011 60.8986 77.4184 61.4891 77.8007C61.3461 78.3545 61.2225 78.8856 61.1046 79.4017C60.6571 81.3483 60.3344 82.7548 59.2346 83.9141C57.4894 85.752 55.0015 86.8621 52.8065 87.757C52.4792 87.8909 52.1496 88.0225 51.8212 88.1553C50.758 88.581 49.68 89.017 48.6202 89.5137C44.0712 88.676 40.0727 84.9017 39.0244 80.395ZM26.2642 146.553C24.1459 146.086 22.1615 144.325 21.3307 142.02C20.4106 139.466 20.7241 136.243 22.189 133.177C23.5977 130.227 25.8465 127.671 28.03 125.305C28.2772 125.037 28.5244 124.769 28.7728 124.502C30.875 122.236 33.0494 119.892 34.7306 117.165C36.5994 114.134 37.7678 110.78 38.8985 107.538C39.2624 106.494 39.6378 105.416 40.0292 104.376C41.3464 100.865 43.3182 96.498 46.9059 93.8681C48.6649 92.5784 50.7282 91.751 52.9118 90.8744C53.2459 90.7405 53.5801 90.6054 53.9131 90.4704C56.2958 89.4988 58.675 88.3933 60.6091 86.6584C61.7363 87.7215 63.1611 88.3418 64.3604 88.7778C68.2926 90.206 72.3873 90.7279 76.2577 90.3045C75.0092 92.7718 74.255 95.5138 74.0833 98.2592C71.5588 98.3886 69.0502 98.7582 66.5703 99.2354C56.8531 101.105 47.691 105.807 40.7719 112.473C40.6346 112.604 40.5316 112.758 40.4572 112.921C40.2981 112.976 40.147 113.06 40.0109 113.172C39.4741 113.613 39.3208 114.37 39.6446 114.985L48.1453 131.153C47.905 131.217 47.6647 131.298 47.4278 131.398C47.2973 131.188 47.1188 131.007 46.8853 130.881C46.4951 130.671 45.7123 130.219 44.9558 129.782C44.727 129.649 44.5027 129.52 44.2887 129.396C44.2406 129.221 44.1616 129.054 44.0495 128.904C42.6396 127.011 40.4881 125.75 38.1478 125.445C35.8063 125.14 33.4042 125.806 31.5548 127.273C30.9208 127.776 30.8155 128.698 31.3179 129.331C31.8215 129.965 32.7427 130.072 33.3756 129.568C34.5898 128.606 36.232 128.15 37.7678 128.35C38.4648 128.441 39.148 128.667 39.7728 129.005C36.2183 130.131 32.9773 132.287 30.605 135.157C27.9602 138.357 26.4473 142.353 26.2642 146.553ZM52.1485 142.991C50.8793 144.101 49.2623 145.011 47.2046 145.772C41.478 147.888 34.9674 147.827 29.274 145.626C29.6128 142.451 30.8476 139.461 32.8629 137.024C35.1677 134.236 38.4384 132.246 41.9678 131.445C42.3844 131.679 42.9428 132.002 43.4899 132.319C44.2509 132.759 44.9673 133.173 45.409 133.413C44.6846 135.297 45.8657 137.337 47.4529 138.2C48.753 138.906 50.1778 138.97 51.3886 138.97C51.5248 138.97 51.6598 138.969 51.7903 138.969L54.8413 138.95C54.4155 140.409 53.4748 141.831 52.1485 142.991ZM54.5277 144.782C56.1882 143.186 57.3441 141.233 57.803 139.223C57.8247 139.126 57.8362 139.029 57.8385 138.933L90.9748 138.731C90.9531 138.994 91 139.267 91.1305 139.52C92.0059 141.211 93.124 142.773 94.4252 144.168L54.5277 144.782ZM120.178 145.028C115.905 147.863 110.39 148.786 105.425 147.5C100.661 146.264 96.4474 142.999 94.0315 138.713L98.2098 138.688C99.9767 138.676 102.647 138.66 104.298 136.598C105.024 135.692 105.373 134.42 105.209 133.279C105.198 133.199 105.179 133.12 105.163 133.041L107.798 131.503C107.846 131.475 107.889 131.441 107.933 131.409C111.524 132.184 114.86 134.194 117.2 137.024C119.043 139.253 120.232 141.946 120.681 144.818C120.507 144.856 120.336 144.924 120.178 145.028ZM128.732 142.02C127.901 144.325 125.917 146.086 123.798 146.553C123.615 142.352 122.103 138.357 119.458 135.157C117.086 132.287 113.845 130.131 110.29 129.005C110.915 128.668 111.598 128.442 112.295 128.35C113.831 128.15 115.473 128.606 116.687 129.569C117.32 130.072 118.243 129.965 118.745 129.332C119.247 128.698 119.142 127.777 118.508 127.273C116.659 125.806 114.257 125.14 111.915 125.446C109.575 125.751 107.423 127.011 106.014 128.904C105.979 128.949 105.951 128.996 105.923 129.044C105.796 129.142 105.684 129.26 105.596 129.396L103.376 130.693C103.234 130.623 103.09 130.562 102.943 130.51L111.287 113.467C111.554 112.924 111.457 112.27 111.044 111.826C110.914 111.687 110.759 111.58 110.593 111.502C110.587 111.486 110.583 111.47 110.576 111.454C109.134 108.441 105.785 107.071 103.093 105.971C102.79 105.847 102.493 105.725 102.207 105.605C100.801 105.012 99.3782 104.366 98.0015 103.741C94.8876 102.326 91.6672 100.864 88.2912 99.8534C87.3276 99.5662 86.3274 99.2869 85.318 99.0363C85.7723 94.3465 86.4807 89.2402 88.4434 85.356C88.6185 85.5643 88.7959 85.7749 88.9778 85.9935C90.8146 88.1999 93.5246 89.3992 96.1498 90.4704C96.4829 90.6066 96.817 90.7405 97.1512 90.8744C99.3347 91.751 101.397 92.5784 103.157 93.8681C106.744 96.498 108.717 100.865 110.034 104.376C110.424 105.416 110.801 106.496 111.164 107.538C112.294 110.781 113.462 114.134 115.331 117.165C117.014 119.892 119.187 122.236 121.289 124.502C121.537 124.769 121.786 125.037 122.033 125.305C124.215 127.671 126.465 130.227 127.874 133.177C129.339 136.243 129.651 139.466 128.732 142.02Z" fill="#E186AD"/>
</g>
<defs>
<clipPath id="clip0">
<rect width="150" height="150" fill="white" transform="translate(0 0.996094)"/>
</clipPath>
</defs>
</svg>
