<svg width="40" height="40" viewBox="0 0 40 40" fill="none" xmlns="http://www.w3.org/2000/svg">
<path d="M38.1673 13.6653H22.9482V2.11156C22.9482 1.27672 22.2691 0.597656 21.4343 0.597656H18.5658C17.7309 0.597656 17.0519 1.2768 17.0519 2.11156V13.6653H1.83266C0.822188 13.6653 0 14.4874 0 15.498V19.4488C0 20.4595 0.822188 21.2815 1.83266 21.2815H2.09633L4.16172 35.9604C4.43781 37.9227 6.14039 39.4023 8.12195 39.4023H31.8779C33.8595 39.4023 35.562 37.9226 35.8381 35.9604L37.9036 21.2814H38.1673C39.1779 21.2814 39.9999 20.4593 39.9999 19.4487V15.498C40 14.4874 39.178 13.6653 38.1673 13.6653ZM18.6454 2.19125H21.3545V17.4104H18.6454V2.19125ZM34.2602 35.7384C34.0941 36.9187 33.0699 37.8088 31.878 37.8088H8.12195C6.93 37.8088 5.90586 36.9188 5.73977 35.7384L3.70563 21.2814H36.2943L34.2602 35.7384ZM38.4064 19.4487C38.4064 19.5805 38.2991 19.6878 38.1673 19.6878H1.83266C1.70086 19.6878 1.59359 19.5805 1.59359 19.4487V15.498C1.59359 15.3662 1.70086 15.2589 1.83266 15.2589H17.0518V17.49C17.0518 18.3248 17.7309 19.0039 18.5657 19.0039H21.4342C22.2691 19.0039 22.9481 18.3248 22.9481 17.49V15.2589H38.1673C38.2991 15.2589 38.4063 15.3662 38.4063 15.498V19.4487H38.4064Z" fill="#E186AD"/>
</svg>
