<svg width="70" height="70" viewBox="0 0 70 70" fill="none" xmlns="http://www.w3.org/2000/svg">
<g clip-path="url(#clip0)">
<path d="M19.0909 33.4091C19.0909 32.5297 18.3793 31.8181 17.5 31.8181C16.6206 31.8181 15.909 32.5297 15.909 33.4091C15.909 37.5867 20.5171 43.3228 21.0422 43.9644C21.3577 44.3467 21.8144 44.5455 22.2742 44.5455C22.6284 44.5455 22.9858 44.4274 23.2824 44.185C23.9613 43.6272 24.0592 42.6252 23.503 41.9447C21.7974 39.866 19.0909 35.7115 19.0909 33.4091Z" fill="#E6C5D8"/>
<path d="M52.5 31.8181C51.6207 31.8181 50.9091 32.5297 50.9091 33.4091C50.9091 35.7037 48.2026 39.8628 46.4968 41.9463C45.9407 42.6252 46.04 43.6273 46.7191 44.185C47.0142 44.4274 47.3716 44.5455 47.7273 44.5455C48.1871 44.5455 48.6423 44.3467 48.9578 43.9644C49.4829 43.3228 54.091 37.5869 54.091 33.4091C54.091 32.5297 53.3794 31.8181 52.5 31.8181Z" fill="#E6C5D8"/>
<path d="M35.0001 31.8181C34.1207 31.8181 33.4091 32.5297 33.4091 33.4091V42.9545C33.4091 43.8339 34.1207 44.5455 35.0001 44.5455C35.8795 44.5455 36.591 43.8339 36.591 42.9545V33.4091C36.5909 32.5297 35.8793 31.8181 35.0001 31.8181Z" fill="#E6C5D8"/>
<path d="M52.5 6.36369C51.5359 6.36369 50.5285 6.49121 49.4822 6.68555C45.9782 2.60099 40.7913 0 35.0001 0C29.2088 0 24.0217 2.60099 20.518 6.6854C19.4715 6.49121 18.4641 6.36354 17.5001 6.36354C7.8504 6.36369 0 14.2141 0 23.8637C0 30.4758 3.7287 36.4868 9.58275 39.4588L9.55173 63.5012C9.55023 65.2365 10.2244 66.8679 11.4502 68.0952C12.6776 69.3242 14.3073 70 16.0428 70H53.9636C57.5432 70 60.4547 67.0885 60.4547 63.5089V39.4356C66.287 36.4558 70.0002 30.454 70.0002 23.8637C70 14.2141 62.1496 6.36369 52.5 6.36369ZM57.2728 63.5091C57.2728 65.333 55.7876 66.8184 53.9635 66.8184H16.0426C15.1586 66.8184 14.3274 66.4734 13.7013 65.8474C13.0767 65.2213 12.7319 64.3901 12.7333 63.5046L12.7417 57.2728H57.2728V63.5091ZM58.2577 36.9591C58.1738 36.9933 58.0946 37.0337 58.02 37.0819C57.8195 37.2061 57.6549 37.3709 57.5321 37.5603C57.4079 37.7483 57.3239 37.9659 57.2898 38.1988C57.2758 38.2874 57.2711 38.376 57.2726 38.4661V54.0908H12.7457L12.7662 38.4877C12.7677 38.4008 12.763 38.3122 12.7506 38.2267C12.7165 37.9859 12.6279 37.7621 12.4989 37.568C12.3776 37.3861 12.2192 37.2277 12.0265 37.1065C11.9473 37.0568 11.8634 37.0133 11.7764 36.9775C6.55475 34.694 3.18177 29.5514 3.18177 23.8637C3.18177 15.9681 9.60452 9.54546 17.5 9.54546C17.8085 9.54546 18.1343 9.58275 18.4539 9.60795C16.8443 12.4054 15.909 15.638 15.909 19.0909C15.909 19.9703 16.6206 20.6819 17.5 20.6819C18.3793 20.6819 19.0909 19.9703 19.0909 19.0909C19.0909 10.3191 26.2282 3.18177 35.0001 3.18177C43.7719 3.18177 50.9091 10.3191 50.9091 19.0909C50.9091 19.9703 51.6207 20.6819 52.5 20.6819C53.3794 20.6819 54.091 19.9703 54.091 19.0909C54.091 15.638 53.1557 12.4055 51.5461 9.60795C51.8657 9.58275 52.1915 9.54546 52.5 9.54546C60.3956 9.54546 66.8182 15.9682 66.8182 23.8637C66.8182 29.5313 63.4593 34.6675 58.2577 36.9591Z" fill="#E6C5D8"/>
</g>
<defs>
<clipPath id="clip0">
<rect width="70" height="70" fill="white"/>
</clipPath>
</defs>
</svg>
