<svg width="70" height="70" viewBox="0 0 70 70" fill="none" xmlns="http://www.w3.org/2000/svg">
<path d="M35 0C15.67 0 0 15.67 0 35C0 54.33 15.67 70 35 70C54.33 70 70 54.33 70 35C69.9752 15.6804 54.3196 0.0247748 35 0ZM36.5015 66.9219V60.7658C36.5015 59.9366 35.8292 59.2643 35 59.2643C34.1708 59.2643 33.4985 59.9366 33.4985 60.7658V66.9219C17.0343 66.1359 3.86411 52.9657 3.07808 36.5015H9.23423C10.0634 36.5015 10.7357 35.8292 10.7357 35C10.7357 34.1708 10.0634 33.4985 9.23423 33.4985H3.07808C3.86411 17.0343 17.0343 3.86411 33.4985 3.07808V9.23423C33.4985 10.0634 34.1708 10.7357 35 10.7357C35.8292 10.7357 36.5015 10.0634 36.5015 9.23423V3.07808C52.9657 3.86411 66.1359 17.0343 66.9219 33.4985H60.7658C59.9366 33.4985 59.2643 34.1708 59.2643 35C59.2643 35.8292 59.9366 36.5015 60.7658 36.5015H60.7808H66.9369C66.1503 52.9711 52.9715 66.1434 36.5015 66.9219Z" fill="#E6C5D8"/>
<path d="M50.8408 48.9639L36.5015 34.3843V19.2342C36.5015 18.405 35.8292 17.7327 35 17.7327C34.1708 17.7327 33.4985 18.405 33.4985 19.2342V34.9999C33.5002 35.3939 33.6565 35.7713 33.9339 36.051L48.6937 51.066C49.2742 51.6589 50.2254 51.669 50.8183 51.0885C51.4112 50.508 51.4214 49.5568 50.8408 48.9639Z" fill="#E6C5D8"/>
</svg>
