<svg width="24" height="24" viewBox="0 0 24 24" fill="none" xmlns="http://www.w3.org/2000/svg">
<g clip-path="url(#clip0)">
<path d="M13.5937 23.9532H9.75037C9.1084 23.9532 8.58618 23.431 8.58618 22.7891V14.1201H6.34387C5.7019 14.1201 5.17969 13.5977 5.17969 12.9559V9.24127C5.17969 8.5993 5.7019 8.07709 6.34387 8.07709H8.58618V6.21692C8.58618 4.3725 9.16534 2.80328 10.2609 1.6792C11.3613 0.549988 12.8992 -0.0467529 14.7083 -0.0467529L17.6395 -0.0419922C18.2803 -0.0408936 18.8016 0.481323 18.8016 1.12219V4.57117C18.8016 5.21313 18.2796 5.73535 17.6378 5.73535L15.6643 5.73608C15.0624 5.73608 14.9092 5.85675 14.8764 5.89374C14.8224 5.95508 14.7581 6.12848 14.7581 6.6073V8.0769H17.4895C17.6951 8.0769 17.8943 8.12762 18.0655 8.22321C18.4349 8.42957 18.6645 8.81976 18.6645 9.24146L18.663 12.9561C18.663 13.5977 18.1408 14.1199 17.4988 14.1199H14.7581V22.7891C14.7581 23.431 14.2357 23.9532 13.5937 23.9532ZM9.99316 22.5463H13.351V13.4902C13.351 13.0616 13.6998 12.713 14.1282 12.713H17.256L17.2573 9.48407H14.128C13.6996 9.48407 13.351 9.13544 13.351 8.70679V6.6073C13.351 6.05762 13.4068 5.4325 13.8217 4.96265C14.3231 4.39465 15.1132 4.3291 15.6639 4.3291L17.3947 4.32837V1.36462L14.7072 1.36023C11.7999 1.36023 9.99316 3.22131 9.99316 6.21692V8.70679C9.99316 9.13525 9.64453 9.48407 9.21606 9.48407H6.58667V12.713H9.21606C9.64453 12.713 9.99316 13.0616 9.99316 13.4902V22.5463ZM17.6367 1.36499H17.6369H17.6367Z" fill="#E186AD"/>
</g>
<defs>
<clipPath id="clip0">
<rect width="23.9531" height="24" fill="white"/>
</clipPath>
</defs>
</svg>
