<svg width="25" height="24" viewBox="0 0 25 24" fill="none" xmlns="http://www.w3.org/2000/svg">
<g clip-path="url(#clip0)">
<path d="M3.19153 6.5C2.91503 6.5 2.69153 6.2765 2.69153 6V1.5C2.69153 1.2235 2.91503 1 3.19153 1C3.46803 1 3.69153 1.2235 3.69153 1.5V6C3.69153 6.2765 3.46803 6.5 3.19153 6.5Z" fill="#E186AD"/>
<path d="M4.87903 6.5C4.60253 6.5 4.37903 6.2765 4.37903 6V1.125C4.37903 0.8485 4.60253 0.625 4.87903 0.625C5.15553 0.625 5.37903 0.8485 5.37903 1.125V6C5.37903 6.2765 5.15553 6.5 4.87903 6.5Z" fill="#E186AD"/>
<path d="M6.56653 6.5C6.29003 6.5 6.06653 6.2765 6.06653 6V1.125C6.06653 0.8485 6.29003 0.625 6.56653 0.625C6.84303 0.625 7.06653 0.8485 7.06653 1.125V6C7.06653 6.2765 6.84303 6.5 6.56653 6.5Z" fill="#E186AD"/>
<path d="M19.046 24H6.35852C2.57202 24 0.400024 22.007 0.400024 18.531V6.0625C0.400024 2.4365 2.53502 0 5.71252 0H19.5045C21.859 0 24.4 2.262 24.4 5.917V18.4585C24.4 21.566 22.0485 24 19.046 24ZM5.71252 1C2.52952 1 1.40002 3.727 1.40002 6.0625V18.5315C1.40002 22.2245 4.09652 23 6.35852 23H19.046C21.5285 23 23.4 21.0475 23.4 18.4585V5.917C23.4 2.88 21.378 1 19.5045 1H5.71252Z" fill="#E186AD"/>
<path d="M12.3995 7.625C10.2825 7.625 8.56604 9.342 8.56604 11.459C8.56604 13.576 10.2825 15.292 12.3995 15.292C14.516 15.292 16.233 13.576 16.233 11.459C16.233 9.342 14.516 7.625 12.3995 7.625ZM12.3995 13.375C11.341 13.375 10.4825 12.517 10.4825 11.4585C10.4825 10.4 11.341 9.5415 12.3995 9.5415C13.458 9.5415 14.3165 10.4 14.3165 11.4585C14.3165 12.517 13.458 13.375 12.3995 13.375Z" fill="#E186AD"/>
<path d="M12.3995 17.542C9.04504 17.542 6.31604 14.813 6.31604 11.4585C6.31604 8.104 9.04504 5.375 12.3995 5.375C15.754 5.375 18.483 8.104 18.483 11.4585C18.483 14.813 15.754 17.542 12.3995 17.542ZM12.3995 6.375C9.59654 6.375 7.31604 8.6555 7.31604 11.4585C7.31604 14.2615 9.59654 16.542 12.3995 16.542C15.2025 16.542 17.483 14.2615 17.483 11.4585C17.483 8.6555 15.2025 6.375 12.3995 6.375Z" fill="#E186AD"/>
<path d="M23.8995 7.46002H16.8995V8.54002H23.8995V7.46002Z" fill="#E186AD"/>
<path d="M7.77454 7.47443H1.14954V8.52543H7.77454V7.47443Z" fill="#E186AD"/>
<path d="M21.0665 5.06651C21.0665 5.67401 20.574 6.16701 19.9655 6.16701H18.3335C17.725 6.16701 17.2325 5.67401 17.2325 5.06651V3.43351C17.2325 2.82601 17.725 2.33301 18.3335 2.33301H19.9655C20.574 2.33301 21.0665 2.82601 21.0665 3.43351V5.06651Z" fill="#E186AD"/>
</g>
<defs>
<clipPath id="clip0">
<rect width="24" height="24" fill="white" transform="translate(0.400024)"/>
</clipPath>
</defs>
</svg>
