<svg width="30" height="30" viewBox="0 0 30 30" fill="none" xmlns="http://www.w3.org/2000/svg">
<path d="M3.48938 8.125C3.14375 8.125 2.86438 7.84562 2.86438 7.5V1.875C2.86438 1.52938 3.14375 1.25 3.48938 1.25C3.835 1.25 4.11438 1.52938 4.11438 1.875V7.5C4.11438 7.84562 3.835 8.125 3.48938 8.125Z" fill="#FF2F5C"/>
<path d="M5.59875 8.125C5.25313 8.125 4.97375 7.84562 4.97375 7.5V1.40625C4.97375 1.06063 5.25313 0.78125 5.59875 0.78125C5.94438 0.78125 6.22375 1.06063 6.22375 1.40625V7.5C6.22375 7.84562 5.94438 8.125 5.59875 8.125Z" fill="#FF2F5C"/>
<path d="M7.70813 8.125C7.3625 8.125 7.08313 7.84562 7.08313 7.5V1.40625C7.08313 1.06063 7.3625 0.78125 7.70813 0.78125C8.05375 0.78125 8.33313 1.06063 8.33313 1.40625V7.5C8.33313 7.84562 8.05375 8.125 7.70813 8.125Z" fill="#FF2F5C"/>
<path d="M23.3075 30H7.44812C2.715 30 0 27.5088 0 23.1637V7.57812C0 3.04563 2.66875 0 6.64062 0H23.8806C26.8237 0 30 2.8275 30 7.39625V23.0731C30 26.9575 27.0606 30 23.3075 30ZM6.64062 1.25C2.66187 1.25 1.25 4.65875 1.25 7.57812V23.1644C1.25 27.7806 4.62062 28.75 7.44812 28.75H23.3075C26.4106 28.75 28.75 26.3094 28.75 23.0731V7.39625C28.75 3.6 26.2225 1.25 23.8806 1.25H6.64062Z" fill="#FF2F5C"/>
<path d="M14.9994 9.53125C12.3531 9.53125 10.2075 11.6775 10.2075 14.3237C10.2075 16.97 12.3531 19.115 14.9994 19.115C17.645 19.115 19.7913 16.97 19.7913 14.3237C19.7913 11.6775 17.645 9.53125 14.9994 9.53125ZM14.9994 16.7188C13.6763 16.7188 12.6031 15.6462 12.6031 14.3231C12.6031 13 13.6763 11.9269 14.9994 11.9269C16.3225 11.9269 17.3956 13 17.3956 14.3231C17.3956 15.6462 16.3225 16.7188 14.9994 16.7188Z" fill="#FF2F5C"/>
<path d="M14.9994 21.9275C10.8063 21.9275 7.395 18.5162 7.395 14.3231C7.395 10.13 10.8063 6.71875 14.9994 6.71875C19.1925 6.71875 22.6038 10.13 22.6038 14.3231C22.6038 18.5162 19.1925 21.9275 14.9994 21.9275ZM14.9994 7.96875C11.4956 7.96875 8.645 10.8194 8.645 14.3231C8.645 17.8269 11.4956 20.6775 14.9994 20.6775C18.5031 20.6775 21.3538 17.8269 21.3538 14.3231C21.3538 10.8194 18.5031 7.96875 14.9994 7.96875Z" fill="#FF2F5C"/>
<path d="M29.3744 9.3252H20.6244V10.6752H29.3744V9.3252Z" fill="#FF2F5C"/>
<path d="M9.21812 9.34277H0.936874V10.6565H9.21812V9.34277Z" fill="#FF2F5C"/>
<path d="M25.8331 6.33289C25.8331 7.09227 25.2175 7.70852 24.4569 7.70852H22.4169C21.6562 7.70852 21.0406 7.09227 21.0406 6.33289V4.29164C21.0406 3.53227 21.6562 2.91602 22.4169 2.91602H24.4569C25.2175 2.91602 25.8331 3.53227 25.8331 4.29164V6.33289Z" fill="#FF2F5C"/>
</svg>
