<svg width="214" height="214" viewBox="0 0 214 214" fill="none" xmlns="http://www.w3.org/2000/svg">
<g clip-path="url(#clip0)">
<path d="M83.0385 153.565C79.5938 150.186 74.0432 150.24 70.6645 153.684C67.2858 157.129 67.3394 162.68 70.7841 166.058C74.2288 169.437 79.7794 169.383 83.1581 165.939C86.5368 162.494 86.4814 156.942 83.0385 153.565ZM74.2854 162.489C72.8093 161.041 72.7863 158.662 74.2341 157.186C75.6818 155.71 78.0612 155.687 79.5372 157.134C81.0133 158.582 81.0363 160.961 79.5885 162.437C78.1407 163.913 75.7614 163.936 74.2854 162.489Z" fill="#E186AD"/>
<path d="M113.828 138.24C117.765 142.102 124.108 142.04 127.97 138.103C131.832 134.166 131.77 127.823 127.833 123.961C123.896 120.1 117.553 120.161 113.691 124.098C109.83 128.036 109.889 134.376 113.828 138.24ZM124.332 127.531C126.301 129.462 126.331 132.633 124.4 134.602C122.469 136.571 119.298 136.601 117.329 134.67C115.361 132.739 115.33 129.568 117.261 127.599C119.192 125.631 122.363 125.6 124.332 127.531Z" fill="#E186AD"/>
<path d="M114.758 51.6051C115.215 52.0533 115.843 52.3265 116.533 52.3198L123.604 52.2515C124.986 52.2381 126.092 51.1101 126.079 49.7277C126.066 48.3454 124.938 47.239 123.555 47.2524L116.484 47.3207C115.102 47.3341 113.996 48.4621 114.009 49.8445C114.016 50.5339 114.301 51.1569 114.758 51.6051Z" fill="#E186AD"/>
<path d="M147.941 146.304C149.482 144.733 150.317 142.657 150.296 140.458L150.277 138.489C153.441 138.651 156.589 137.483 158.877 135.151C163.22 130.723 163.151 123.585 158.723 119.241C158.398 118.923 158.046 118.64 157.69 118.367C158.042 118.086 158.386 117.8 158.706 117.474C163.05 113.046 162.98 105.907 158.552 101.564C158.228 101.246 157.875 100.963 157.519 100.69C157.871 100.409 158.215 100.123 158.535 99.7965C162.879 95.3684 162.81 88.2303 158.381 83.8871C158.057 83.5684 157.704 83.2855 157.348 83.0131C157.7 82.7321 158.044 82.446 158.364 82.1193C162.708 77.6912 162.639 70.5532 158.211 66.2099C155.876 63.9201 152.706 62.8176 149.547 63.039L149.52 60.2319L149.391 46.9281C149.348 42.3851 145.617 38.7263 141.078 38.7737L97.5497 39.1946C93.0102 39.2421 89.3532 42.9705 89.3935 47.51L89.5222 60.8139L89.6901 78.1728C85.9114 77.184 81.7272 78.1402 78.8019 81.1226C76.0657 83.9123 75.0865 87.7775 75.8406 91.3431C75.8076 91.5944 75.7943 91.8615 75.8221 92.1724L76.2616 130.126L73.1175 133.332L69.5478 129.831L46.7898 153.033L78.9163 184.544L93.1948 198.549L115.953 175.347L112.383 171.845L117.688 166.437C123.94 166.893 129.96 164.636 134.37 160.14C137.416 157.034 139.406 153.067 140.123 148.791L142.142 148.771C144.341 148.75 146.401 147.875 147.941 146.304ZM155.309 131.651C153.965 133.022 152.088 133.671 150.229 133.486L150.108 121.073C151.964 120.852 153.855 121.466 155.224 122.809C157.683 125.225 157.723 129.19 155.309 131.651ZM155.138 113.974C153.794 115.345 151.917 115.994 150.058 115.809L149.938 103.396C151.793 103.175 153.684 103.789 155.053 105.132C157.512 107.548 157.553 111.513 155.138 113.974ZM154.967 96.297C153.623 97.6677 151.746 98.317 149.887 98.1317L149.767 85.7188C151.623 85.4975 153.513 86.1122 154.882 87.4549C157.341 89.8708 157.382 93.8357 154.967 96.297ZM154.711 69.7813C157.172 72.1954 157.211 76.1586 154.797 78.6198C153.452 79.9906 151.576 80.6399 149.716 80.4545L149.596 68.0417C151.45 67.8222 153.34 68.4368 154.711 69.7813ZM94.3909 47.4635C94.3754 45.6798 95.8127 44.2145 97.5963 44.1955L141.124 43.7746C141.566 43.7703 141.992 43.8581 142.378 44.017C142.554 44.0878 142.693 44.2279 142.853 44.3289C143.238 44.5727 143.552 44.8808 143.803 45.2602C143.907 45.4183 144.05 45.5548 144.124 45.7291C144.29 46.1129 144.385 46.5345 144.391 46.9782L144.471 55.2829L94.4729 55.7664L94.3909 47.4635ZM144.519 60.282L144.56 64.4468L144.731 82.1239L144.75 84.1497L144.901 99.801L144.921 101.827L145.072 117.478L145.092 119.504L145.263 137.181L145.295 140.504C145.312 142.29 143.877 143.753 142.091 143.771L140.545 143.787L98.5633 144.195C96.7832 144.214 95.3108 142.777 95.2953 140.99L95.0244 112.793L96.8021 114.536C101.23 118.88 108.368 118.811 112.711 114.383C117.055 109.955 116.986 102.816 112.558 98.4732L94.7149 80.9723L94.5195 60.7638L144.519 60.282ZM90.1378 83.7037L90.9608 84.3463C91.0444 84.4074 91.1334 84.4631 91.2083 84.5366L109.056 102.043C111.518 104.457 111.556 108.42 109.142 110.881C106.728 113.343 102.765 113.381 100.303 110.967L94.956 105.722L89.9086 100.771L82.4552 93.4607C79.994 91.0466 79.9556 87.0834 82.3698 84.6221C84.46 82.4946 87.7064 82.1874 90.1378 83.7037ZM53.8624 152.963L69.618 136.9L84.6567 151.65C90.1415 157.03 90.227 165.872 84.8473 171.357L78.8497 177.472L53.8624 152.963ZM93.1281 191.477L82.4193 180.973L88.4169 174.858C92.2788 170.921 94.0458 165.713 93.7771 160.596L108.884 175.413L93.1281 191.477ZM135.034 148.842C134.378 151.774 132.919 154.479 130.801 156.639C127.203 160.306 122.201 162.022 117.069 161.348L115.834 161.187L108.815 168.342L88.1562 148.079L76.687 136.829L81.4452 131.978L81.3386 130.827C81.3266 130.678 81.3039 130.53 81.2624 130.262L80.9012 98.9367L89.9769 107.839L90.2962 141.034C90.3199 143.306 91.2625 145.355 92.7671 146.83C94.2735 148.308 96.3418 149.213 98.6116 149.191L135.034 148.842Z" fill="#E186AD"/>
</g>
<defs>
<clipPath id="clip0">
<rect width="150" height="150" fill="white" transform="translate(106 0.996094) rotate(44.446)"/>
</clipPath>
</defs>
</svg>
