<svg width="24" height="30" viewBox="0 0 24 30" fill="none" xmlns="http://www.w3.org/2000/svg">
<path d="M23.3808 7.46997C22.9261 5.9341 22.1962 4.64115 21.1479 3.51752C20.123 2.41842 18.9437 1.58497 17.5425 0.969305C15.9462 0.269877 14.0956 -0.0699646 12.3276 0.0120042C11.6826 0.0413215 11.0526 0.0754254 10.4351 0.164574C8.69522 0.413472 7.16294 0.932209 5.75152 1.7501C3.95 2.79595 2.54337 4.21755 1.57111 5.97658C1.06613 6.892 0.568937 8.50625 0.357732 9.56048C0.107638 10.8038 0.327817 12.9595 0.829801 14.1753C1.45683 15.6908 1.97258 16.3627 3.23083 17.3003C3.23861 17.3056 4.01642 17.8657 4.53455 17.8573C5.47809 17.8393 5.66596 16.9365 5.75571 16.5027C5.77246 16.4207 5.78922 16.34 5.80896 16.264C5.82631 16.197 5.84905 16.1252 5.87238 16.0504C6.00581 15.6196 6.18709 15.0297 5.88614 14.5067C5.77306 14.3105 5.63904 14.1579 5.52117 14.0239C5.45715 13.9509 5.39253 13.8803 5.34048 13.8025C4.89294 13.1378 4.66618 12.3061 4.66618 11.3309C4.66618 10.0511 4.95577 8.89156 5.55228 7.78708C6.63403 5.78333 8.42897 4.51909 10.7438 4.12899C12.0613 3.90822 13.5966 4.00096 14.7484 4.36952C15.8008 4.70696 16.6965 5.30348 17.339 6.09625C18.0193 6.93508 18.4082 7.99888 18.4944 9.25893C18.5506 10.0631 18.4776 10.8732 18.4172 11.4111C18.1845 13.4818 17.582 15.1487 16.6259 16.3663C15.8427 17.3655 14.9984 17.8663 14.0441 17.8986C13.4297 17.9225 12.9702 17.7969 12.5549 17.4995C12.163 17.2201 11.9297 16.8754 11.8196 16.4165C11.6952 15.8924 11.8453 15.3492 12.0051 14.7736L12.0308 14.6814C12.1702 14.1753 12.3162 13.7128 12.4592 13.2575C12.6842 12.5401 12.9175 11.7988 13.1096 10.9384C13.3268 9.96733 13.3555 9.18294 13.1981 8.54215C13.0043 7.74639 12.5765 7.15047 11.9267 6.76995C11.2392 6.36908 10.2652 6.29189 9.4473 6.5731C8.22854 6.98893 7.29876 8.09581 6.8961 9.60954C6.69207 10.3784 6.63284 11.1855 6.72079 12.0064C6.7884 12.6502 6.93259 13.2353 7.19884 13.9419C7.18987 13.9724 7.18029 14.0047 7.17072 14.0359C7.15157 14.0987 7.13422 14.1597 7.12106 14.2118C6.83447 15.4084 6.55565 16.5883 6.27744 17.7657C6.01358 18.884 5.74913 20.0004 5.47929 21.1283L5.41826 21.3807C5.14184 22.5295 4.85704 23.7178 4.79063 25.1364L4.76072 25.7287C4.70208 26.8308 4.64285 27.9706 4.79063 29.0248C4.81995 29.2306 4.88457 29.6919 5.33869 29.8529C5.4745 29.9546 5.60494 29.9976 5.73178 29.9976C6.11171 29.9976 6.44975 29.6117 6.73754 29.2845C7.67629 28.2171 8.47444 26.8691 9.17806 25.1651C9.49277 24.4028 9.70158 23.5825 9.90321 22.7892L10.0247 22.3165C10.1719 21.7517 10.3161 21.1791 10.459 20.6125L10.4686 20.5748C10.7337 20.807 11.04 21.0164 11.3948 21.2108C12.1457 21.6267 12.9929 21.869 13.9119 21.9306C14.7735 21.9892 15.6805 21.8785 16.6815 21.5914C17.442 21.3748 18.1695 21.0451 18.8456 20.6125C21.2712 19.0593 22.9243 16.3424 23.5011 12.9625C23.674 11.9525 23.7476 11.1406 23.7476 10.2479C23.7464 9.22004 23.6237 8.28428 23.3808 7.46997ZM22.3206 12.7632C21.8007 15.8075 20.3372 18.2378 18.1988 19.6067C17.6209 19.9771 16.9992 20.2577 16.35 20.4432C15.4849 20.6921 14.7119 20.7884 13.9915 20.7394C13.237 20.6885 12.5771 20.5012 11.9698 20.165C11.3625 19.8329 10.9688 19.4721 10.6924 18.9953L9.95886 17.728L9.29772 20.3229C9.15592 20.8859 9.01233 21.4555 8.86574 22.0173L8.74309 22.4972C8.54265 23.284 8.35418 24.0277 8.07118 24.711C7.44116 26.2378 6.73754 27.4458 5.92384 28.3984C5.86041 27.5876 5.90828 26.6782 5.95495 25.7945L5.98546 25.195C6.04589 23.8895 6.31812 22.7581 6.58078 21.6637L6.64241 21.4095C6.91225 20.281 7.1767 19.1628 7.44116 18.044C7.71937 16.8671 7.99759 15.6884 8.28358 14.4948C8.29196 14.4613 8.30392 14.4218 8.31649 14.3805C8.38829 14.1394 8.46308 13.8899 8.36196 13.6368C8.10528 12.9792 7.97007 12.4545 7.90964 11.8825C7.83784 11.2064 7.88511 10.5459 8.05203 9.91887C8.34999 8.79823 8.99916 7.9923 9.83441 7.7075C10.0414 7.6363 10.258 7.60639 10.4662 7.60639C10.8055 7.60639 11.1202 7.68776 11.3224 7.80563C11.6856 8.01863 11.9189 8.35248 12.0344 8.82874C12.1451 9.28106 12.114 9.90391 11.9411 10.6799C11.7592 11.4906 11.5444 12.1757 11.3164 12.9015C11.1692 13.3693 11.0203 13.8444 10.8767 14.3649L10.8515 14.4559C10.6673 15.1194 10.459 15.8715 10.6553 16.696C10.8336 17.4426 11.2273 18.0242 11.8585 18.4753C12.4855 18.9235 13.2215 19.1239 14.0842 19.097C15.3951 19.0527 16.5666 18.3832 17.567 17.1076C18.6625 15.7123 19.3488 13.842 19.6067 11.5463C19.6713 10.9611 19.7508 10.0792 19.6886 9.17875C19.5845 7.66861 19.1071 6.37865 18.2688 5.34477C17.4797 4.37131 16.3883 3.64077 15.1139 3.23212C13.7911 2.80792 12.0404 2.69903 10.5458 2.95032C7.85339 3.40384 5.76289 4.87988 4.49925 7.21988C3.80641 8.50386 3.46956 9.84886 3.46956 11.3321C3.46956 12.5502 3.76453 13.6063 4.34728 14.4714C4.42746 14.5911 4.52319 14.7024 4.62251 14.8149C4.71165 14.9166 4.79602 15.0123 4.84747 15.1015C4.88397 15.199 4.77986 15.5364 4.7296 15.6986C4.70148 15.7901 4.67456 15.8781 4.65302 15.96C4.62789 16.0558 4.60635 16.1581 4.58481 16.261C4.56148 16.3735 4.52558 16.5476 4.48789 16.6433C4.34609 16.5877 4.08702 16.4453 3.94701 16.3418C2.87184 15.5412 2.47755 15.0261 1.93788 13.7199C1.53282 12.7381 1.33179 10.7954 1.53282 9.79741C1.75719 8.67916 2.23524 7.25578 2.62055 6.55635C3.48631 4.98937 4.74217 3.72094 6.35343 2.78638C7.62963 2.04687 9.02011 1.57659 10.6068 1.34983C11.171 1.26786 11.7694 1.23615 12.3844 1.20803C13.9699 1.13324 15.6327 1.43838 17.0626 2.06541C18.3119 2.61407 19.3625 3.35597 20.2738 4.33422C21.1928 5.31904 21.8336 6.45583 22.2344 7.81041C22.4445 8.51463 22.5504 9.33611 22.5504 10.2503C22.5498 11.0718 22.4809 11.8233 22.3206 12.7632Z" fill="#FF2F5C"/>
</svg>
