<svg width="25" height="24" viewBox="0 0 25 24" fill="none" xmlns="http://www.w3.org/2000/svg">
<g clip-path="url(#clip0)">
<path d="M21.5046 5.97592C21.1409 4.74722 20.5569 3.71286 19.7183 2.81395C18.8984 1.93467 17.955 1.26791 16.834 0.775383C15.5569 0.215841 14.0765 -0.0560327 12.6621 0.00954234C12.1461 0.0329962 11.6421 0.0602793 11.1481 0.131598C9.75618 0.330717 8.53035 0.745706 7.40122 1.40002C5.96 2.2367 4.8347 3.37398 4.05689 4.78121C3.65291 5.51354 3.25515 6.80494 3.08619 7.64832C2.88611 8.64296 3.06225 10.3675 3.46384 11.3402C3.96547 12.5526 4.37806 13.0901 5.38466 13.8401C5.39089 13.8444 6.01313 14.2925 6.42764 14.2858C7.18247 14.2714 7.33277 13.5491 7.40457 13.2021C7.41797 13.1365 7.43137 13.0719 7.44717 13.0111C7.46105 12.9575 7.47924 12.9001 7.49791 12.8402C7.60464 12.4956 7.74968 12.0237 7.50891 11.6053C7.41845 11.4483 7.31123 11.3263 7.21694 11.2191C7.16572 11.1607 7.11403 11.1042 7.07238 11.042C6.71435 10.5102 6.53295 9.84485 6.53295 9.06465C6.53295 8.04081 6.76461 7.11319 7.24183 6.2296C8.10723 4.6266 9.54318 3.61521 11.3951 3.30313C12.4491 3.12651 13.6773 3.2007 14.5987 3.49555C15.4406 3.76551 16.1572 4.24273 16.6712 4.87694C17.2155 5.548 17.5266 6.39904 17.5955 7.40708C17.6405 8.05039 17.5821 8.69848 17.5338 9.12879C17.3476 10.7854 16.8656 12.1189 16.1007 13.093C15.4741 13.8923 14.7988 14.2929 14.0353 14.3188C13.5437 14.3379 13.1761 14.2374 12.8439 13.9995C12.5304 13.776 12.3438 13.5003 12.2557 13.1332C12.1561 12.7139 12.2763 12.2793 12.4041 11.8188L12.4247 11.7451C12.5362 11.3402 12.653 10.9702 12.7674 10.6059C12.9473 10.032 13.134 9.43895 13.2877 8.75065C13.4614 7.9738 13.4844 7.34629 13.3585 6.83366C13.2034 6.19705 12.8612 5.72032 12.3414 5.4159C11.7914 5.0952 11.0122 5.03346 10.3578 5.25842C9.38283 5.59108 8.63901 6.47659 8.31688 7.68757C8.15366 8.30264 8.10627 8.94833 8.17663 9.60504C8.23072 10.1201 8.34607 10.5882 8.55907 11.1535C8.55189 11.1779 8.54423 11.2037 8.53658 11.2286C8.52126 11.2789 8.50738 11.3277 8.49685 11.3693C8.26757 12.3266 8.04452 13.2705 7.82195 14.2125C7.61087 15.1071 7.3993 16.0003 7.18343 16.9025L7.13461 17.1045C6.91347 18.0235 6.68564 18.9741 6.63251 20.109L6.60857 20.5829C6.56167 21.4646 6.51428 22.3764 6.63251 23.2198C6.65596 23.3844 6.70765 23.7535 7.07095 23.8822C7.1796 23.9636 7.28395 23.9981 7.38542 23.9981C7.68937 23.9981 7.9598 23.6893 8.19003 23.4275C8.94104 22.5736 9.57956 21.4952 10.1424 20.132C10.3942 19.5222 10.5613 18.866 10.7226 18.2313L10.8197 17.8531C10.9375 17.4013 11.0528 16.9432 11.1672 16.49L11.1749 16.4598C11.3869 16.6455 11.632 16.813 11.9158 16.9686C12.5166 17.3013 13.1943 17.4951 13.9295 17.5444C14.6188 17.5913 15.3444 17.5028 16.1452 17.273C16.7536 17.0998 17.3356 16.836 17.8765 16.49C19.8169 15.2474 21.1394 13.0738 21.6009 10.3699C21.7392 9.56196 21.7981 8.91244 21.7981 8.19829C21.7971 7.37597 21.699 6.62736 21.5046 5.97592ZM20.6565 10.2105C20.2405 12.6459 19.0698 14.5902 17.3591 15.6853C16.8967 15.9816 16.3994 16.2061 15.88 16.3545C15.1879 16.5536 14.5695 16.6307 13.9932 16.5914C13.3896 16.5507 12.8617 16.4009 12.3758 16.1319C11.89 15.8663 11.575 15.5776 11.3539 15.1962L10.7671 14.1824L10.2382 16.2583C10.1247 16.7087 10.0099 17.1644 9.89259 17.6138L9.79447 17.9977C9.63412 18.6271 9.48335 19.2221 9.25694 19.7687C8.75293 20.9902 8.19003 21.9566 7.53907 22.7186C7.48833 22.0701 7.52662 21.3425 7.56396 20.6355L7.58837 20.1559C7.63671 19.1115 7.8545 18.2064 8.06463 17.3309L8.11393 17.1275C8.3298 16.2248 8.54136 15.3302 8.75293 14.4351C8.9755 13.4936 9.19807 12.5507 9.42687 11.5957C9.43357 11.5689 9.44314 11.5374 9.45319 11.5043C9.51063 11.3114 9.57046 11.1118 9.48957 10.9094C9.28423 10.3833 9.17605 9.96355 9.12771 9.50596C9.07027 8.96509 9.10808 8.43666 9.24163 7.93503C9.48 7.03852 9.99933 6.39378 10.6675 6.16594C10.8331 6.10898 11.0064 6.08505 11.173 6.08505C11.4444 6.08505 11.6961 6.15015 11.8579 6.24444C12.1485 6.41484 12.3351 6.68193 12.4275 7.06293C12.5161 7.42479 12.4912 7.92307 12.3529 8.54388C12.2073 9.19245 12.0355 9.7405 11.8531 10.3211C11.7354 10.6954 11.6162 11.0755 11.5013 11.4919L11.4812 11.5646C11.3338 12.0955 11.1672 12.6971 11.3242 13.3567C11.4669 13.9541 11.7818 14.4193 12.2868 14.7802C12.7884 15.1387 13.3772 15.2991 14.0674 15.2775C15.1161 15.2421 16.0533 14.7065 16.8536 13.686C17.73 12.5698 18.279 11.0735 18.4853 9.23696C18.537 8.76884 18.6007 8.06331 18.5509 7.34294C18.4676 6.13483 18.0856 5.10286 17.4151 4.27575C16.7837 3.49699 15.9107 2.91256 14.8911 2.58564C13.8328 2.24627 12.4323 2.15916 11.2366 2.36019C9.08272 2.72301 7.41031 3.90384 6.3994 5.77584C5.84513 6.80303 5.57565 7.87903 5.57565 9.06561C5.57565 10.0401 5.81162 10.885 6.27783 11.5771C6.34196 11.6728 6.41855 11.7618 6.498 11.8518C6.56932 11.9332 6.63681 12.0098 6.67798 12.0811C6.70718 12.1591 6.62389 12.4291 6.58368 12.5588C6.56119 12.632 6.53965 12.7024 6.52242 12.768C6.50231 12.8445 6.48508 12.9264 6.46785 13.0087C6.44918 13.0987 6.42046 13.238 6.39031 13.3146C6.27687 13.2701 6.06961 13.1561 5.95761 13.0733C5.09747 12.4329 4.78204 12.0208 4.3503 10.9759C4.02626 10.1904 3.86543 8.63626 4.02626 7.83787C4.20575 6.94327 4.58819 5.80456 4.89644 5.24502C5.58905 3.99143 6.59373 2.9767 7.88274 2.22904C8.9037 1.63743 10.0161 1.26121 11.2855 1.0798C11.7368 1.01423 12.2155 0.988861 12.7075 0.966364C13.976 0.906533 15.3061 1.15064 16.4501 1.65227C17.4495 2.09119 18.29 2.68472 19.019 3.46731C19.7542 4.25517 20.2669 5.16461 20.5876 6.24827C20.7556 6.81164 20.8403 7.46883 20.8403 8.2002C20.8398 8.85739 20.7848 9.45858 20.6565 10.2105Z" fill="#E186AD"/>
</g>
<defs>
<clipPath id="clip0">
<rect width="24" height="24" fill="white" transform="translate(0.400024)"/>
</clipPath>
</defs>
</svg>
