<svg width="70" height="70" viewBox="0 0 70 70" fill="none" xmlns="http://www.w3.org/2000/svg">
<path d="M69.9742 59.6223L64.9493 33.2415C64.9432 33.2012 64.9359 33.1616 64.9266 33.1224L62.541 20.5979C62.442 18.2445 60.1855 16.2674 55.8272 14.7193C52.2534 13.4501 47.3504 12.5319 41.9402 12.1126C40.8532 9.78107 38.6634 8.06427 36.0445 7.63769C35.4025 3.98235 32.2068 1.19531 28.3703 1.19531H26.9252C26.1212 1.19531 25.4693 1.84727 25.4693 2.65122C25.4693 3.45517 26.1212 4.10712 26.9252 4.10712H28.3703C30.6219 4.10712 32.5214 5.63961 33.0829 7.71602C30.6327 8.25019 28.6043 9.92302 27.5801 12.1507C17.789 12.9657 7.67742 15.5789 7.45947 20.5948L5.07324 33.1224C5.06392 33.1616 5.05664 33.2013 5.05053 33.2415L0.0257695 59.6223C0.00873542 59.7122 0 59.8033 0 59.8947C0 62.7584 3.58677 64.9473 10.9648 66.587C17.4011 68.0172 25.9369 68.8049 34.9999 68.8049C44.0629 68.8049 52.5987 68.0172 59.035 66.587C66.4132 64.9473 69.9998 62.7584 69.9998 59.8947C70 59.8033 69.9913 59.7122 69.9742 59.6223ZM34.7689 10.445C37.5243 10.445 39.766 12.6866 39.766 15.4421C39.766 18.1975 37.5243 20.4392 34.7689 20.4392C32.0134 20.4392 29.7718 18.1975 29.7718 15.4421C29.7718 12.6866 32.0134 10.445 34.7689 10.445ZM15.0085 17.5129C18.0468 16.4136 22.2072 15.5839 26.8675 15.1381C26.8638 15.2391 26.8598 15.3401 26.8598 15.4422C26.8598 19.8032 30.4077 23.3511 34.7687 23.3511C39.1297 23.3511 42.6776 19.8032 42.6776 15.4422C42.6776 15.3259 42.6738 15.2104 42.6689 15.0953C47.4447 15.5232 51.72 16.3505 54.8525 17.4631C58.3816 18.7167 59.6338 20.0225 59.6338 20.76C59.6338 20.7768 59.6357 20.7929 59.6363 20.8095C59.6373 20.8385 59.6379 20.8673 59.6407 20.8966C59.6436 20.927 59.6484 20.9567 59.6532 20.9866C59.6557 21.0019 59.6567 21.0172 59.6596 21.0326L59.6628 21.0496C59.6632 21.0517 59.6635 21.0538 59.664 21.0559L62.048 33.5717C61.9056 34.7079 59.6358 36.4264 54.7606 37.8194C49.502 39.3218 42.4843 40.1493 34.9999 40.1493C30.3626 40.1493 25.773 39.8202 21.7269 39.1976C21.3073 39.1328 20.8801 39.2551 20.5576 39.5316C20.2352 39.8081 20.0497 40.2118 20.0497 40.6366V53.8261C20.0497 55.2326 18.9053 56.377 17.4988 56.377C16.0922 56.377 14.9479 55.2326 14.9479 53.8261V38.807C14.9479 38.1777 14.5437 37.6198 13.9458 37.4236C9.68715 36.0266 8.07095 34.5028 7.95244 33.5691L9.67637 24.5183C11.1394 25.6383 13.3112 26.6196 16.1516 27.4311C21.2058 28.8752 27.8995 29.6705 34.9999 29.6705C43.2045 29.6705 50.8569 28.6026 55.9951 26.7406C56.751 26.4667 57.1417 25.6318 56.8677 24.8757C56.5939 24.12 55.7592 23.7283 55.0029 24.0031C50.1704 25.7542 42.8794 26.7587 34.9998 26.7587C28.1624 26.7587 21.7528 26.0032 16.9514 24.6314C11.7532 23.1458 10.366 21.4989 10.366 20.76C10.366 20.0369 11.5819 18.7528 15.0085 17.5129ZM58.4033 63.7444C52.1682 65.13 43.8568 65.8931 34.9999 65.8931C26.1431 65.8931 17.8316 65.13 11.5966 63.7444C4.84263 62.2436 3.07501 60.5604 2.92287 59.9738L7.23278 37.3469C8.38513 38.2641 9.98764 39.0979 12.0361 39.8436V53.8258C12.0361 56.8379 14.4867 59.2885 17.4988 59.2885C20.5109 59.2885 22.9615 56.8379 22.9615 53.8258V42.3137C26.7205 42.8037 30.8452 43.061 35.0001 43.061C46.4701 43.061 58.0475 41.1038 62.763 37.3243L67.0773 59.9738C66.925 60.5604 65.1572 62.2436 58.4033 63.7444Z" fill="#E6C5D8"/>
</svg>
