<svg width="150" height="151" viewBox="0 0 150 151" fill="none" xmlns="http://www.w3.org/2000/svg">
<path d="M139.499 68.7781L135.615 53.2405C136.677 53.0149 137.474 52.0728 137.474 50.9439V48.4388C137.474 42.9995 133.049 38.5745 127.61 38.5745H109.917V33.4071C109.917 30.7306 107.739 28.5532 105.063 28.5532H14.8746C12.198 28.5532 10.0207 30.7306 10.0207 33.4071V75.996C10.0207 77.293 11.0722 78.3447 12.3694 78.3447C13.6664 78.3447 14.7182 77.2933 14.7182 75.996V33.4071C14.7182 33.3207 14.7882 33.2507 14.8746 33.2507H105.062C105.149 33.2507 105.219 33.3207 105.219 33.4071V75.9966C105.219 77.2936 106.27 78.3453 107.568 78.3453C108.865 78.3453 109.916 77.2939 109.916 75.9966V73.3341H137.622C137.624 73.3341 137.626 73.3347 137.628 73.3347C137.631 73.3347 137.633 73.3344 137.635 73.3344C141.044 73.3367 143.939 75.5744 144.933 78.6579H137.63C136.333 78.6579 135.281 79.7094 135.281 81.0066V86.017C135.281 90.0749 138.582 93.3761 142.64 93.3761H145.302V103.71H139.161C137.144 97.8849 131.606 93.689 125.104 93.689C118.601 93.689 113.064 97.8849 111.047 103.71H109.916V86.0167C109.916 84.7197 108.864 83.668 107.567 83.668C106.27 83.668 105.218 84.7194 105.218 86.0167V103.709H56.4894C54.472 97.8843 48.9346 93.6884 42.4321 93.6884C35.9297 93.6884 30.392 97.8843 28.3749 103.709H14.8746C14.7882 103.709 14.7182 103.639 14.7182 103.553V98.3858H24.8956C26.1926 98.3858 27.2443 97.3344 27.2443 96.0371C27.2443 94.7398 26.1929 93.6884 24.8956 93.6884H2.34873C1.05176 93.6884 0 94.7398 0 96.0371C0 97.3344 1.05146 98.3858 2.34873 98.3858H10.021V103.553C10.021 106.229 12.1983 108.407 14.8749 108.407H27.5616C27.561 108.459 27.5575 108.511 27.5575 108.563C27.5575 116.765 34.2305 123.438 42.4321 123.438C50.6338 123.438 57.3067 116.765 57.3067 108.563C57.3067 108.511 57.3032 108.459 57.3026 108.407H110.233C110.233 108.459 110.229 108.511 110.229 108.563C110.229 116.765 116.902 123.438 125.104 123.438C133.305 123.438 139.978 116.765 139.978 108.563C139.978 108.511 139.975 108.459 139.974 108.407H147.651C148.948 108.407 150 107.355 150 106.058V81.0061C150 74.8209 145.436 69.6819 139.499 68.7781ZM109.917 43.2717H127.61C130.459 43.2717 132.777 45.5897 132.777 48.4388V48.5952H109.917V43.2717ZM109.917 68.6369V53.2924H130.786L134.622 68.6369H109.917ZM42.4321 118.741C36.8203 118.741 32.2547 114.176 32.2547 108.564C32.2547 102.952 36.8203 98.3864 42.4321 98.3864C48.0439 98.3864 52.6096 102.952 52.6096 108.564C52.6096 114.176 48.0439 118.741 42.4321 118.741ZM125.104 118.741C119.493 118.741 114.927 114.176 114.927 108.564C114.927 102.952 119.493 98.3864 125.104 98.3864C130.716 98.3864 135.282 102.952 135.282 108.564C135.282 114.176 130.716 118.741 125.104 118.741ZM145.303 88.6786H142.641C141.173 88.6786 139.979 87.4845 139.979 86.0167V83.3548H145.303V88.6786H145.303Z" fill="#E186AD"/>
<path d="M42.4322 103.71C39.7556 103.71 37.5782 105.887 37.5782 108.564C37.5782 111.24 39.7556 113.418 42.4322 113.418C45.1087 113.418 47.2861 111.24 47.2861 108.564C47.2861 105.887 45.1087 103.71 42.4322 103.71Z" fill="#E186AD"/>
<path d="M125.104 103.71C122.428 103.71 120.25 105.887 120.25 108.564C120.25 111.24 122.428 113.418 125.104 113.418C127.781 113.418 129.958 111.24 129.958 108.564C129.958 105.887 127.781 103.71 125.104 103.71Z" fill="#E186AD"/>
<path d="M97.5469 93.6895H62.4739C61.1769 93.6895 60.1251 94.7409 60.1251 96.0382C60.1251 97.3354 61.1766 98.3869 62.4739 98.3869H97.5469C98.8439 98.3869 99.8956 97.3354 99.8956 96.0382C99.8956 94.7409 98.8441 93.6895 97.5469 93.6895Z" fill="#E186AD"/>
<path d="M37.4218 83.6685H7.35911C6.06213 83.6685 5.01038 84.7199 5.01038 86.0172C5.01038 87.3145 6.06184 88.3659 7.35911 88.3659H37.4218C38.7188 88.3659 39.7705 87.3145 39.7705 86.0172C39.7705 84.7199 38.7188 83.6685 37.4218 83.6685Z" fill="#E186AD"/>
<path d="M81.6712 51.7883C80.7542 50.8713 79.2668 50.8713 78.3498 51.7886L57.4635 72.6746L46.5982 61.8093C45.6809 60.892 44.1938 60.892 43.2768 61.8093C42.3595 62.7266 42.3595 64.2134 43.2768 65.1307L55.8029 77.6568C56.2614 78.1156 56.8626 78.3447 57.4635 78.3447C58.0644 78.3447 58.6658 78.1156 59.124 77.6568L81.6709 55.11C82.5882 54.1924 82.5882 52.7056 81.6712 51.7883Z" fill="#E186AD"/>
</svg>
