<svg width="29" height="29" viewBox="0 0 29 29" fill="none" xmlns="http://www.w3.org/2000/svg">
<path d="M28.8339 5.34546C28.6862 5.19782 28.4401 5.14858 28.2432 5.19782L27.2587 5.5424C27.8494 4.85329 28.2432 4.11495 28.4893 3.42584C28.5878 3.17973 28.5385 2.98285 28.3908 2.83514C28.2432 2.6875 27.9971 2.63826 27.8001 2.73668C26.4219 3.32737 25.2406 3.8196 24.2561 4.11489C24.2561 4.16413 24.2069 4.11489 24.1576 4.11489C23.3701 3.6719 21.4504 2.68744 20.0722 2.68744C16.5773 2.73668 13.7717 5.69005 13.7717 9.28329V9.48017C8.65251 8.49571 5.84685 7.01903 2.79501 3.81954L2.3029 3.32732L2.00755 3.91801C0.333983 7.1175 1.51532 10.0216 3.435 11.9905C2.54901 11.8429 1.95831 11.5475 1.41685 11.1046C1.21997 10.9569 0.973857 10.9077 0.727743 11.0553C0.530863 11.1538 0.432395 11.4491 0.481629 11.6952C1.17074 14.0086 2.89354 15.8791 4.76398 17.0112C3.87799 17.0112 3.13965 16.9128 2.40131 16.4205C2.20443 16.3221 1.90908 16.3221 1.7122 16.4698C1.51532 16.6175 1.41685 16.8635 1.51532 17.1096C2.40131 19.62 4.12411 20.949 6.88059 21.2936C5.45314 22.1304 3.5827 22.8195 0.678566 22.8687C0.383217 22.8687 0.137103 23.0656 0.0386917 23.3117C-0.0597766 23.6071 0.0386917 23.8532 0.235572 24.0501C2.0076 25.4775 5.94537 26.3143 10.8184 26.3143C19.4816 26.3143 26.5697 18.5864 26.5697 9.08641V8.93876C27.6526 8.3973 28.5386 7.36361 28.9816 5.93616C29.0307 5.73922 28.9815 5.49311 28.8339 5.34546ZM25.8805 8.15113L25.5851 8.2496V9.08641C25.5851 18.0449 18.9401 25.3299 10.8184 25.3299C6.33908 25.3299 3.33653 24.5915 1.7122 23.804C5.10856 23.5578 7.07747 22.4749 8.60339 21.2936L9.83396 20.4076H8.35728C5.55161 20.4076 3.82881 19.62 2.84436 17.7496C3.73035 18.0449 4.66557 18.0449 5.69926 17.9957C6.09302 17.9465 6.48684 17.9465 6.88059 17.9465L7.02824 16.962C5.1578 16.4205 2.94277 14.747 1.85985 12.4828C2.8443 12.9258 3.92717 13.0242 4.91163 13.0242H6.43754L5.20703 12.1382C4.17334 11.3998 1.12156 8.79106 2.59824 5.05011C5.74849 8.15113 8.75109 9.57858 14.1655 10.563L14.7562 10.6615V9.28329C14.7562 6.23151 17.1189 3.72113 20.0723 3.6719C21.2044 3.62266 23.0749 4.65635 23.6163 4.9517C23.9116 5.09935 24.207 5.14858 24.5023 5.05017C25.2406 4.80406 26.1266 4.45947 27.1111 4.06571C26.6681 4.80406 26.0774 5.49316 25.2899 6.1331C25.093 6.28074 25.0437 6.57609 25.1422 6.8222C25.2407 7.06832 25.536 7.16679 25.7821 7.06832L27.7018 6.42844C27.3572 7.06826 26.8157 7.8066 25.8805 8.15113Z" fill="#E186AD"/>
</svg>
