<svg width="30" height="26" viewBox="0 0 30 26" fill="none" xmlns="http://www.w3.org/2000/svg">
<path d="M29.8281 3.53002C29.6754 3.37728 29.4208 3.32635 29.2171 3.37728L28.1987 3.73375C28.8097 3.02088 29.2171 2.25708 29.4717 1.5442C29.5735 1.2896 29.5226 1.08594 29.3698 0.933139C29.2171 0.780402 28.9625 0.72947 28.7587 0.831276C27.333 1.44234 26.1109 1.95154 25.0925 2.25702C25.0925 2.30795 25.0416 2.25702 24.9907 2.25702C24.1759 1.79875 22.1901 0.780344 20.7643 0.780344C17.149 0.831276 14.2466 3.88649 14.2466 7.60363V7.8073C8.95087 6.7889 6.04846 5.26129 2.89139 1.95148L2.3823 1.44228L2.07677 2.05335C0.345498 5.36316 1.56757 8.36744 3.55344 10.4042C2.6369 10.2515 2.02584 9.94597 1.46571 9.4877C1.26204 9.33497 1.00744 9.28403 0.752836 9.43677C0.549167 9.53864 0.447303 9.84411 0.498235 10.0987C1.21111 12.4919 2.99331 14.4269 4.92825 15.5981C4.01171 15.5981 3.24791 15.4962 2.48411 14.987C2.28044 14.8851 1.97491 14.8851 1.77124 15.0379C1.56757 15.1907 1.46571 15.4453 1.56757 15.6999C2.48411 18.2968 4.26631 19.6716 7.11785 20.0281C5.64118 20.8937 3.70624 21.6066 0.701962 21.6576C0.39643 21.6576 0.141829 21.8612 0.0400238 22.1158C-0.06184 22.4214 0.0400238 22.676 0.243693 22.8796C2.07683 24.3563 6.15038 25.222 11.1915 25.222C20.1534 25.222 27.4859 17.2275 27.4859 7.39996V7.24723C28.6061 6.68709 29.5227 5.61776 29.9809 4.14109C30.0318 3.93736 29.9809 3.68276 29.8281 3.53002ZM26.7729 6.43243L26.4674 6.5343V7.39996C26.4674 16.6674 19.5932 24.2036 11.1914 24.2036C6.55766 24.2036 3.45158 23.4398 1.77124 22.625C5.28472 22.3704 7.32152 21.2502 8.90006 20.0281L10.1731 19.1115H8.64546C5.74305 19.1115 3.96084 18.2968 2.94244 16.3619C3.85898 16.6674 4.82645 16.6674 5.89578 16.6165C6.30312 16.5655 6.71052 16.5655 7.11785 16.5655L7.27059 15.5471C5.33565 14.987 3.04424 13.2557 1.92398 10.9134C2.94238 11.3717 4.06259 11.4736 5.08099 11.4736H6.65953L5.38658 10.557C4.31725 9.79318 1.16023 7.09443 2.68784 3.22449C5.94671 6.43244 9.05285 7.90911 14.654 8.92751L15.2651 9.02937V7.60363C15.2651 4.44662 17.7092 1.84968 20.7644 1.79875C21.9356 1.74781 23.8706 2.81715 24.4306 3.12268C24.7362 3.27542 25.0417 3.32635 25.3472 3.22455C26.111 2.96995 27.0275 2.61348 28.0459 2.20614C27.5877 2.96995 26.9766 3.68282 26.1619 4.34481C25.9583 4.49755 25.9073 4.80308 26.0092 5.05768C26.111 5.31228 26.4165 5.41415 26.6711 5.31228L28.657 4.65035C28.3005 5.31223 27.7404 6.07603 26.7729 6.43243Z" fill="#FF2F5C"/>
</svg>
